<svg width="154" height="154" viewBox="0 0 154 154" fill="none" xmlns="http://www.w3.org/2000/svg">
<path d="M108.351 39.058C108.182 38.8396 107.927 38.7061 107.635 38.7061H99.0437C98.6433 38.7061 98.2914 38.9731 98.1943 39.3493L82.9161 94.1275L66.8006 39.3371C66.6914 38.961 66.3394 38.7061 65.9511 38.7061H56.7769C56.3886 38.7061 56.0366 38.961 55.9274 39.3371L39.7149 94.1153L24.7279 39.3614C24.6187 38.9731 24.2668 38.7061 23.8663 38.7061H14.7892C14.5101 38.7061 14.2431 38.8396 14.0854 39.058C13.9155 39.2765 13.8669 39.5677 13.9397 39.8347L34.157 108.969C34.2662 109.345 34.6181 109.612 35.0064 109.612H43.9864C44.3747 109.612 44.7267 109.357 44.8359 108.981L61.2669 52.9649L77.6009 108.981C77.7101 109.357 78.062 109.624 78.4503 109.624H87.3333C87.7216 109.624 88.0735 109.369 88.1827 108.993L108.497 39.859C108.57 39.592 108.521 39.3007 108.351 39.0823V39.058Z" fill="#1D3B6D"/>
<path d="M134.321 61.5445H125.535C125.098 61.5445 124.722 61.8721 124.661 62.309L117.344 114.83C116.907 117.597 116.167 119.721 115.123 121.128C114.152 122.427 112.672 123.07 110.609 123.07C110.111 123.07 109.577 122.997 109.031 122.851C108.449 122.694 107.891 122.524 107.405 122.342C107.175 122.257 106.908 122.269 106.689 122.39C106.471 122.499 106.301 122.706 106.24 122.948L104.092 131.055C103.971 131.504 104.214 131.965 104.65 132.123C105.609 132.462 106.592 132.705 107.575 132.851C108.522 132.984 109.529 133.057 110.548 133.057C114.225 133.057 117.222 132.353 119.455 130.97C121.652 129.599 123.363 127.948 124.54 126.043C125.705 124.174 126.518 122.208 126.955 120.206C127.38 118.276 127.695 116.699 127.901 115.497L135.219 62.576C135.255 62.3211 135.183 62.0663 135.013 61.8721C134.843 61.678 134.6 61.5688 134.345 61.5688L134.321 61.5445Z" fill="#007CC1"/>
<path d="M124.867 43.9607C126.676 42.6137 128.751 41.8006 131.032 41.5336C133.726 41.2181 136.724 41.6914 139.939 42.9049C138.738 38.9124 135.037 36 130.656 36C125.304 36 120.96 40.3444 120.96 45.696C120.96 46.4848 121.069 47.2493 121.239 47.9774C121.906 46.8731 123.071 45.2955 124.867 43.9607Z" fill="#007CC1"/>
<path d="M128.86 46.2786C125.474 47.0067 123.278 48.9968 122.125 50.3196C123.763 53.3291 126.967 55.3799 130.644 55.3799C135.134 55.3799 138.896 52.334 140 48.1959C135.947 46.2179 132.209 45.5505 128.86 46.2664V46.2786Z" fill="#007CC1"/>
</svg>
